# xmcd
#
# Track frame offsets:
#	150
#	19134
#	42315
#	64192
#	92086
#	118584
#	129422
#	150365
#	173443
#	190756
#	205612
#	228074
#	249651
#	275557
#	293437
#	305624
#
# Disc length: 4357 seconds
#
# Revision: 2
# Processed by: cddbd v1.5.2PL0 Copyright (c) Steve Scherf et al.
# Submitted via: audiograbber 1.81.03
#
DISCID=cc110310
DTITLE=Various Artist - Buena Vista Havana CD II
DYEAR=2005
DGENRE=Salsa
TTITLE0=cubamar - Cantinero De Cuba
TTITLE1=sabor y tumbao - Oye Como Suena (Rumba de Mi Pueblo)
TTITLE2=cantores de rosario - Gujiro Natural
TTITLE3=bamboleo - Pelicula Vieja
TTITLE4=arte mixto - Aguzate
TTITLE5=catarsis - Cha Cha Cha
TTITLE6=cachibache - Que Buena Si
TTITLE7=maraca - Ven Vamo a Bailar
TTITLE8=chispa y sus complices - Cerca de Mi
TTITLE9=eco del caribe - Fuego el Son
TTITLE10=los papine - Los Barrios
TTITLE11=moncada - Mama Hue
TTITLE12=klimax - Los Habaneras son Perfectas
TTITLE13=D'nigma - Estoy Enomerada
TTITLE14=cubamar - Chan Chan
TTITLE15=tumbao habana - Relacion Internacional
EXTD=
EXTT0=
EXTT1=
EXTT2=
EXTT3=
EXTT4=
EXTT5=
EXTT6=
EXTT7=
EXTT8=
EXTT9=
EXTT10=
EXTT11=
EXTT12=
EXTT13=
EXTT14=
EXTT15=
PLAYORDER=
